PathFileType	4	(X/Y/Z)	21_coords_data.trc
DataRate	CameraRate	NumFrames	NumMarkers	Units	OrigDataRate	OrigDataStartFrame	OrigNumFrames
30.0	30.0	6	21	m	30.0	51	60
Frame#	Time	THUMB_TIP	THUMB_IP	THUMB_MCP	THUMB_CMC	INDEX_TIP	INDEX_DIP	INDEX_PIP	INDEX_MCP	MIDDLE_TIP	MIDDLE_DIP	MIDDLE_PIP	MIDDLE_MCP	RING_TIP	RING_DIP	RING_PIP	RING_MCP	PINKY_TIP	PINKY_DIP	PINKY_PIP	PINKY_MCP	WRIST
X1	Y1	Z1	X2	Y2	Z2	X3	Y3	Z3	X4	Y4	Z4	X5	Y5	Z5	X6	Y6	Z6	X7	Y7	Z7	X8	Y8	Z8	X9	Y9	Z9	X10	Y10	Z10	X11	Y11	Z11	X12	Y12	Z12	X13	Y13	Z13	X14	Y14	Z14	X15	Y15	Z15	X16	Y16	Z16	X17	Y17	Z17	X18	Y18	Z18	X19	Y19	Z19	X20	Y20	Z20	X21	Y21	Z21
50	1.6666666666666667	-0.020138500213623046	-0.009112000465393066	0.9055380249023437	-0.029507999420166017	0.008028189659118652	0.9278920288085938	-0.042623100280761717	0.023795900344848634	0.9536890258789062	-0.05627050018310547	0.0504385986328125	0.9760900268554688	0.017871700286865234	0.061286300659179685	0.8589650268554687	-0.0024085299968719482	0.05807400131225586	0.8706929931640625	-0.023122900009155272	0.055265300750732424	0.8831329956054688	-0.051165199279785155	0.05296939849853516	0.9158920288085938	0.016919099807739257	0.09473970031738281	0.8597639770507812	-0.005125160217285156	0.0893655014038086	0.868010009765625	-0.031185300827026367	0.08402339935302734	0.8804979858398437	-0.05780820083618164	0.07618360137939453	0.916219970703125	0.010026700019836425	0.11442299652099609	0.8685889892578125	-0.011342399597167969	0.10973100280761719	0.8786190185546875	-0.0354625015258789	0.10397299957275391	0.8917160034179688	-0.05941830062866211	0.09496510314941406	0.9242069702148438	-0.007414949893951416	0.13286799621582032	0.8892559814453125	-0.02389489936828613	0.12790499877929687	0.9007059936523437	-0.03869070053100586	0.12200199890136719	0.9122659912109375	-0.05636320114135742	0.11080899810791016	0.9350079956054688	-0.08717269897460937	0.06828559875488281	0.999176025390625
51	1.7	-0.01983729934692383	-0.008831390380859375	0.90547900390625	-0.0294197998046875	0.008295700073242188	0.9277880249023438	-0.04267530059814453	0.023926399230957032	0.9535419921875	-0.056357101440429686	0.05054669952392578	0.97585302734375	0.01743779945373535	0.06137490081787109	0.8585859985351563	-0.002764529943466186	0.058091800689697264	0.8703250122070313	-0.0234955997467041	0.05526300048828125	0.8828820190429687	-0.051405399322509766	0.05300640106201172	0.9156530151367187	0.01647249984741211	0.09479080200195313	0.8592369995117187	-0.005497809886932373	0.08939389801025391	0.8677459716796875	-0.03176580047607422	0.08389720153808594	0.8800750122070312	-0.05797309875488281	0.07602140045166016	0.9158560180664063	0.009527440071105958	0.11437100219726562	0.8681849975585938	-0.011729999542236328	0.1095999984741211	0.87827099609375	-0.035868099212646484	0.10386699676513672	0.8913309936523437	-0.05972969818115234	0.09496769714355469	0.92393701171875	-0.007818970203399658	0.13279899597167968	0.8889229736328125	-0.02431559944152832	0.12794499969482423	0.9005040283203125	-0.039051700592041015	0.12198999786376953	0.9120900268554688	-0.05668510055541992	0.11082499694824219	0.9347479858398438	-0.08719869995117188	0.06827010345458985	0.9990380249023437
52	1.7333333333333334	-0.018831199645996093	-0.008989089965820313	0.9061580200195313	-0.028790800094604493	0.008078410148620605	0.9281669921875	-0.04242119979858398	0.023895999908447266	0.9537030029296875	-0.05649969863891602	0.05059749984741211	0.975906982421875	0.01748240089416504	0.06139970016479492	0.8586729736328125	-0.002762190103530884	0.058095699310302736	0.8703419799804688	-0.02355229949951172	0.055221000671386716	0.8828099975585938	-0.051472599029541016	0.052897201538085935	0.915572021484375	0.016468000411987305	0.09467549896240235	0.859083984375	-0.005569029808044434	0.08931890106201172	0.8676439819335937	-0.03189909934997558	0.08380609893798828	0.8798679809570312	-0.05812469863891601	0.07599829864501953	0.9156799926757813	0.009369170188903809	0.11439800262451172	0.8681900024414062	-0.011829500198364257	0.10957499694824219	0.8780999755859376	-0.03613430023193359	0.10382399749755859	0.8911409912109375	-0.059942401885986325	0.09487000274658203	0.923927978515625	-0.007918610095977783	0.13271499633789063	0.8888460083007812	-0.02450779914855957	0.12788099670410155	0.9002520141601562	-0.03928110122680664	0.12191600036621093	0.9118980102539063	-0.0568849983215332	0.1107699966430664	0.9344860229492188	-0.0874520034790039	0.06834719848632813	0.9989349975585937
53	1.7666666666666666	-0.01881879997253418	-0.009129249572753906	0.9062940063476562	-0.028785600662231445	0.007940269947052003	0.9282979736328125	-0.04247869873046875	0.02375469970703125	0.95368701171875	-0.05662110137939453	0.0504651985168457	0.97577001953125	0.017806400299072267	0.06140599822998047	0.8591259765625	-0.0025809199810028073	0.05803409957885742	0.8706179809570312	-0.023449899673461914	0.05513140106201172	0.8828740234375	-0.051536399841308596	0.05277159881591797	0.915427001953125	0.016577299118041993	0.09451380157470703	0.8595900268554687	-0.00553941011428833	0.08917019653320313	0.8677529907226562	-0.03190640068054199	0.08370539855957031	0.8798870239257812	-0.058307201385498046	0.07591999816894532	0.9157750244140626	0.009523810386657715	0.11410700225830078	0.86843798828125	-0.011814000129699707	0.10938300323486329	0.8783369750976563	-0.03633629989624024	0.10361699676513672	0.8910139770507812	-0.05994210052490234	0.09476779937744141	0.92368798828125	-0.0077028398513793945	0.13245399475097655	0.889197021484375	-0.02433769989013672	0.12765699768066407	0.9004190063476563	-0.03928549957275391	0.1218489990234375	0.9118170166015624	-0.05704600143432617	0.11068299865722656	0.9344970092773438	-0.08746880340576171	0.0679998016357422	0.9986329956054687
54	1.8	-0.018416799545288087	-0.009208939552307128	0.9063389892578125	-0.02854120063781738	0.007922560214996337	0.9283619995117187	-0.04241339874267578	0.02370400047302246	0.9537540283203125	-0.05669369888305664	0.05044120025634766	0.975822998046875	0.017511999130249024	0.061333599090576174	0.8588709716796875	-0.002783720016479492	0.05793659973144531	0.870427001953125	-0.023635900497436524	0.055043098449707034	0.8827869873046875	-0.05161050033569336	0.05263840103149414	0.9154719848632813	0.016567399978637695	0.09446330261230469	0.8597440185546875	-0.005508930206298828	0.08911019897460938	0.8677880249023437	-0.03191559982299805	0.08358809661865234	0.879843017578125	-0.058315299987792966	0.07583219909667968	0.91602099609375	0.00966958999633789	0.11399800109863281	0.8685560302734375	-0.011641900062561035	0.10928099822998047	0.8783150024414063	-0.03624319839477539	0.10356300354003906	0.8911719970703125	-0.06004230117797851	0.0946947021484375	0.9237219848632813	-0.007523419857025146	0.13227099609375	0.8893280029296875	-0.024221399307250976	0.12753199768066406	0.9004190063476563	-0.03926290130615234	0.12170899963378906	0.9118839721679688	-0.057000701904296874	0.11056300354003906	0.9344979858398438	-0.08755780029296875	0.06797630310058594	0.998718017578125
55	1.8333333333333333	-0.017802299499511717	-0.009244250297546388	0.9067239990234375	-0.028139699935913087	0.007954160213470458	0.928583984375	-0.04216770172119141	0.023756399154663085	0.9538980102539063	-0.056523399353027345	0.050395099639892575	0.9758200073242187	0.017663999557495116	0.0612338981628418	0.8588579711914063	-0.002630259990692138	0.05789120101928711	0.870469970703125	-0.023495800018310548	0.054986000061035156	0.8828079833984375	-0.05144810104370117	0.05258689880371094	0.9154349975585937	0.016836999893188476	0.09438189697265625	0.8596069946289062	-0.0052437100410461426	0.08902179718017578	0.8679409790039062	-0.03179710006713867	0.08351920318603516	0.8798870239257812	-0.05827539825439453	0.07577050018310547	0.9157650146484375	0.009735219955444336	0.11397200012207032	0.8686699829101563	-0.011557000160217285	0.10924199676513671	0.8783469848632812	-0.03597629928588867	0.10355000305175781	0.8911019897460938	-0.06000429916381836	0.09458350372314453	0.9236510009765625	-0.007366859912872314	0.1321739959716797	0.8893740234375	-0.02407069969177246	0.12746099853515624	0.9005650024414062	-0.03928139877319336	0.12168099975585937	0.9118579711914062	-0.05704750061035156	0.11048200225830078	0.93452001953125	-0.08745559692382812	0.067685302734375	0.9984310302734375
